# Blender 4.3.0 Alpha
# www.blender.org
mtllib Shuriken_4.mtl
o Shuriken_4
v 0.002902 -0.002924 0.001501
v -0.002898 -0.002924 0.001501
v 0.002902 0.002875 0.001501
v -0.002898 0.002875 0.001501
v 0.000001 -0.049996 -0.001501
v -0.000005 0.049962 -0.001501
v 0.013354 -0.008248 0.001501
v -0.010587 -0.010607 0.001501
v -0.013344 0.008193 0.001501
v 0.010572 0.010553 0.001501
v 0.002052 -0.003576 0.001501
v 0.001063 -0.003985 0.001501
v 0.000002 -0.004125 0.001501
v -0.001059 -0.003985 0.001501
v -0.002048 -0.003576 0.001501
v -0.003549 -0.002075 0.001501
v -0.003959 -0.001086 0.001501
v -0.004099 -0.000024 0.001501
v -0.003959 0.001037 0.001501
v -0.003549 0.002026 0.001501
v -0.002048 0.003527 0.001501
v -0.001059 0.003936 0.001501
v 0.000002 0.004076 0.001501
v 0.001063 0.003936 0.001501
v 0.002052 0.003527 0.001501
v 0.003553 0.002026 0.001501
v 0.003963 0.001037 0.001501
v 0.004103 -0.000024 0.001501
v 0.003963 -0.001086 0.001501
v 0.003553 -0.002075 0.001501
v -0.001400 -0.011531 0.001501
v 0.000239 0.011276 0.001501
v 0.004908 0.031668 0.001501
v -0.004963 -0.031529 0.001501
v 0.008213 -0.013364 -0.001501
v -0.008229 0.013335 -0.001501
v -0.049977 -0.000024 0.001501
v 0.049982 -0.000024 0.001501
v -0.002905 0.002882 -0.001501
v -0.002905 -0.002917 -0.001501
v 0.002894 0.002882 -0.001501
v 0.002894 -0.002917 -0.001501
v -0.010587 -0.010607 -0.001501
v 0.010572 0.010553 -0.001501
v -0.003556 0.002033 -0.001501
v -0.003966 0.001044 -0.001501
v -0.004106 -0.000017 -0.001501
v -0.003966 -0.001079 -0.001501
v -0.003556 -0.002068 -0.001501
v -0.002055 -0.003568 -0.001501
v -0.001066 -0.003978 -0.001501
v -0.000005 -0.004118 -0.001501
v 0.001056 -0.003978 -0.001501
v 0.002045 -0.003568 -0.001501
v 0.003546 -0.002068 -0.001501
v 0.003956 -0.001079 -0.001501
v 0.004095 -0.000017 -0.001501
v 0.003956 0.001044 -0.001501
v 0.003546 0.002033 -0.001501
v 0.002045 0.003534 -0.001501
v 0.001056 0.003943 -0.001501
v -0.000005 0.004083 -0.001501
v -0.001066 0.003943 -0.001501
v -0.002055 0.003534 -0.001501
v -0.011138 0.000438 -0.001501
v 0.011010 -0.000375 -0.001501
v 0.031677 0.004889 -0.001501
v -0.031494 -0.004990 -0.001501
v -0.011555 0.009112 0.000751
v -0.010307 0.010284 -0.000000
v -0.009141 0.011539 -0.000751
v 0.011558 -0.009160 0.000751
v 0.010304 -0.010326 0.000000
v 0.009131 -0.011575 -0.000751
vn -0.9657 -0.2596 -0.0000
vn -0.2897 0.2171 0.9322
vn -0.2597 0.2765 0.9252
vn -0.1785 0.5601 0.8090
vn 0.2592 0.9658 -0.0000
vn -0.0000 -0.0000 1.0000
vn -0.0000 -0.0000 -1.0000
vn -0.9660 0.2587 0.0029
vn -0.8661 0.4999 0.0032
vn -0.8660 0.5001 0.0032
vn -0.9659 0.2590 0.0029
vn -1.0000 -0.0002 0.0023
vn -1.0000 0.0002 0.0023
vn -0.9659 -0.2590 0.0017
vn -0.9660 -0.2586 0.0017
vn -0.8659 -0.5002 0.0009
vn -0.8662 -0.4998 0.0009
vn 0.5002 0.8659 0.0009
vn 0.7073 0.7069 -0.0000
vn 0.7069 0.7073 -0.0000
vn 0.4998 0.8662 0.0009
vn -0.2586 -0.9660 -0.0017
vn -0.4998 -0.8662 -0.0009
vn -0.5002 -0.8659 -0.0009
vn -0.2590 -0.9659 -0.0017
vn 0.0002 -1.0000 -0.0023
vn -0.0002 -1.0000 -0.0023
vn 0.2590 -0.9659 -0.0029
vn 0.2587 -0.9660 -0.0029
vn 0.5001 -0.8660 -0.0032
vn 0.4999 -0.8661 -0.0032
vn -0.7071 0.7071 0.0033
vn -0.7069 -0.7073 -0.0000
vn -0.7073 -0.7069 -0.0000
vn 0.9659 -0.2590 -0.0029
vn 0.8660 -0.5001 -0.0032
vn 0.8661 -0.4999 -0.0032
vn 0.9660 -0.2587 -0.0029
vn 1.0000 -0.0002 -0.0023
vn 1.0000 0.0002 -0.0023
vn 0.9660 0.2586 -0.0017
vn 0.9659 0.2590 -0.0017
vn 0.8662 0.4998 -0.0009
vn 0.8659 0.5002 -0.0009
vn 0.7071 -0.7071 -0.0033
vn 0.2590 0.9659 0.0017
vn 0.2586 0.9660 0.0017
vn 0.0002 1.0000 0.0023
vn -0.0002 1.0000 0.0023
vn -0.2587 0.9660 0.0029
vn -0.2590 0.9659 0.0029
vn -0.4999 0.8661 0.0032
vn -0.5001 0.8660 0.0032
vn 0.2812 -0.1985 0.9389
vn 0.2460 -0.2784 0.9284
vn 0.1709 -0.5610 0.8100
vn 0.3037 -0.0631 0.9507
vn -0.3159 0.0714 0.9461
vn -0.2595 -0.9658 -0.0000
vn 0.9658 0.2592 -0.0006
vn -0.0768 0.3207 -0.9440
vn -0.2768 0.2669 -0.9231
vn -0.2303 0.2925 -0.9281
vn 0.0756 -0.3212 -0.9440
vn 0.2723 -0.2635 -0.9254
vn 0.2287 -0.2897 -0.9294
vn -0.5629 0.1822 -0.8062
vn 0.5557 -0.1737 -0.8130
vn -0.1669 0.6415 0.7488
vn -0.1813 0.7808 0.5979
vn -0.1842 0.8117 0.5543
vn -0.6448 0.1681 -0.7456
vn -0.7839 0.1812 -0.5939
vn -0.8148 0.1838 -0.5499
vn 0.1622 -0.6417 0.7496
vn 0.1776 -0.7818 0.5977
vn 0.1807 -0.8124 0.5543
vn 0.6367 -0.1590 -0.7546
vn 0.7720 -0.1706 -0.6124
vn 0.8030 -0.1729 -0.5704
vt 0.496349 0.261771
vt 0.474595 0.296434
vt 0.003725 0.000928
vt 0.246240 0.104809
vt 0.512655 0.990691
vt 0.518403 0.856577
vt 0.547542 0.853536
vt 0.000441 0.000928
vt 0.240958 0.103670
vt 0.493167 0.262084
vt 0.471401 0.296738
vt 0.447176 0.553797
vt 0.461560 0.556244
vt 0.456046 0.704303
vt 0.428985 0.459364
vt 0.261172 0.443126
vt 0.480148 0.446993
vt 0.465765 0.444546
vt 0.489766 0.549813
vt 0.501667 0.541373
vt 0.189427 0.515156
vt 0.189408 0.529746
vt 0.148485 0.529746
vt 0.148503 0.515156
vt 0.189456 0.500566
vt 0.148533 0.500566
vt 0.189495 0.485976
vt 0.148571 0.485976
vt 0.189539 0.471386
vt 0.148616 0.471386
vt 0.189539 0.617285
vt 0.189587 0.631875
vt 0.148664 0.631875
vt 0.148616 0.617285
vt 0.189680 0.427617
vt 0.189635 0.442207
vt 0.148712 0.442207
vt 0.148756 0.427617
vt 0.189718 0.413027
vt 0.148795 0.413027
vt 0.189748 0.398437
vt 0.148824 0.398437
vt 0.189766 0.383847
vt 0.148843 0.383847
vt 0.189402 0.544336
vt 0.148478 0.544336
vt 0.189587 0.456796
vt 0.148664 0.456796
vt 0.189748 0.690234
vt 0.189766 0.704824
vt 0.148843 0.704824
vt 0.148824 0.690234
vt 0.189718 0.675644
vt 0.148795 0.675644
vt 0.189680 0.661054
vt 0.148756 0.661054
vt 0.189635 0.646465
vt 0.148712 0.646465
vt 0.189773 0.719414
vt 0.189766 0.734004
vt 0.148843 0.734004
vt 0.148849 0.719414
vt 0.189495 0.602695
vt 0.148571 0.602695
vt 0.189456 0.588105
vt 0.148533 0.588105
vt 0.189427 0.573515
vt 0.148503 0.573515
vt 0.189408 0.558926
vt 0.148485 0.558926
vt 0.734907 0.157643
vt 0.582441 0.401343
vt 0.194840 0.842010
vt 0.361668 0.621048
vt 0.513906 0.996049
vt 0.518816 0.856623
vt 0.547879 0.853254
vt 0.237341 0.983107
vt 0.007140 0.854220
vt 0.235113 0.982732
vt 0.006754 0.855507
vt 0.520391 0.516830
vt 0.522838 0.502447
vt 0.672923 0.557559
vt 0.947234 0.000927
vt 0.735589 0.158802
vt 0.455506 0.260236
vt 0.582468 0.401715
vt 0.507968 0.462339
vt 0.496736 0.453028
vt 0.483476 0.446942
vt 0.419674 0.470597
vt 0.469093 0.444494
vt 0.413587 0.483856
vt 0.450502 0.553745
vt 0.464886 0.556192
vt 0.459253 0.704000
vt 0.514304 0.530090
vt 0.452297 0.260547
vt 0.944129 0.000928
vt 0.195845 0.842998
vt 0.360914 0.620816
vt 0.493092 0.549762
vt 0.504993 0.541322
vt 0.237562 0.986887
vt 0.006758 0.858639
vt 0.518459 0.859394
vt 0.524521 0.976503
vt 0.235542 0.987733
vt 0.006999 0.860562
vt 0.518648 0.861438
vt 0.504613 0.988965
vt 0.547566 0.856425
vt 0.479412 0.554834
vt 0.454566 0.445853
vt 0.440886 0.450925
vt 0.521480 0.487920
vt 0.516408 0.474240
vt 0.412499 0.512766
vt 0.417571 0.526446
vt 0.409172 0.512819
vt 0.414244 0.526498
vt 0.518153 0.487971
vt 0.513081 0.474291
vt 0.437559 0.450977
vt 0.425658 0.459417
vt 0.547797 0.858491
vt 0.411140 0.498239
vt 0.426010 0.538347
vt 0.437243 0.547658
vt 0.930202 0.999818
vt 0.422684 0.538399
vt 0.433917 0.547710
vt 0.504641 0.462390
vt 0.493408 0.453079
vt 0.519512 0.502498
vt 0.669481 0.557609
vt 0.517064 0.516881
vt 0.926880 0.999858
vt 0.510978 0.530140
vt 0.476086 0.554885
vt 0.257727 0.443183
vt 0.407813 0.498292
vt 0.410260 0.483909
vt 0.416347 0.470649
vt 0.451239 0.445904
vt 0.571832 0.845811
vt 0.595695 0.836860
vt 0.620116 0.820747
vt 0.571878 0.848776
vt 0.595772 0.839902
vt 0.620293 0.823870
vt 0.572064 0.845213
vt 0.595808 0.835946
vt 0.620045 0.819486
vt 0.572105 0.850823
vt 0.595985 0.841918
vt 0.620403 0.825800
s 1
usemtl M_Shuriken4
f 8/1/1 43/2/1 5/3/1 34/4/1
f 32/5/2 36/6/3 71/7/4
f 38/8/5 67/9/5 44/10/5 10/11/5
f 15/12/6 2/13/6 8/14/6
f 43/2/7 52/15/7 35/16/7
f 25/17/6 3/18/6 10/11/6
f 8/14/6 17/19/6 18/20/6
f 56/21/8 55/22/9 30/23/10 29/24/11
f 57/25/12 56/21/8 29/24/11 28/26/13
f 58/27/14 57/25/12 28/26/13 27/28/15
f 59/29/16 58/27/14 27/28/15 26/30/17
f 50/31/18 40/32/19 2/33/20 15/34/21
f 61/35/22 60/36/23 25/37/24 24/38/25
f 62/39/26 61/35/22 24/38/25 23/40/27
f 63/41/28 62/39/26 23/40/27 22/42/29
f 64/43/30 63/41/28 22/42/29 21/44/31
f 55/22/9 42/45/32 1/46/32 30/23/10
f 41/47/33 59/29/16 26/30/17 3/48/34
f 46/49/35 45/50/36 20/51/37 19/52/38
f 47/53/39 46/49/35 19/52/38 18/54/40
f 48/55/41 47/53/39 18/54/40 17/56/42
f 49/57/43 48/55/41 17/56/42 16/58/44
f 60/36/23 41/47/33 3/48/34 25/37/24
f 39/59/45 64/60/30 21/61/31 4/62/45
f 51/63/46 50/31/18 15/34/21 14/64/47
f 52/65/48 51/63/46 14/64/47 13/66/49
f 53/67/50 52/65/48 13/66/49 12/68/51
f 54/69/52 53/67/50 12/68/51 11/70/53
f 45/50/36 39/59/45 4/62/45 20/51/37
f 40/32/19 49/57/43 16/58/44 2/33/20
f 5/3/7 43/2/7 35/16/7
f 10/11/6 33/71/6 32/72/6
f 8/14/6 34/73/6 31/74/6
f 31/75/54 35/76/55 74/77/56
f 34/78/57 5/79/57 35/76/55 31/75/54
f 33/80/58 6/81/58 36/6/3 32/5/2
f 64/82/7 39/83/7 36/84/7
f 37/85/59 68/86/59 43/2/59 8/87/59
f 65/88/7 47/89/7 48/90/7
f 43/2/7 65/88/7 49/91/7
f 35/16/7 52/15/7 53/92/7
f 49/91/7 40/93/7 43/2/7
f 53/92/7 54/94/7 35/16/7
f 59/95/7 41/96/7 44/97/7
f 63/98/7 64/82/7 36/84/7
f 10/11/60 44/99/60 6/100/60 33/71/60
f 44/97/7 67/101/7 66/102/7
f 61/103/7 62/104/7 44/97/7
f 43/2/7 68/86/7 65/88/7
f 68/105/61 37/106/61 9/107/62 65/108/63
f 67/109/64 38/110/64 7/111/65 66/112/66
f 65/108/63 9/107/62 69/113/67
f 44/97/7 41/96/7 60/114/7
f 65/88/7 48/90/7 49/91/7
f 43/2/7 50/115/7 51/116/7
f 44/97/7 60/114/7 61/103/7
f 44/97/7 66/102/7 59/95/7
f 36/84/7 62/104/7 63/98/7
f 42/45/32 54/69/52 11/70/53 1/46/32
f 45/117/7 46/118/7 65/88/7
f 55/119/7 56/120/7 66/102/7
f 11/121/6 12/122/6 31/74/6
f 21/123/6 22/124/6 32/72/6
f 10/11/6 27/125/6 28/126/6
f 66/112/66 7/111/65 72/127/68
f 54/94/7 42/128/7 35/16/7
f 66/102/7 57/129/7 58/130/7
f 66/102/7 58/130/7 59/95/7
f 43/2/7 40/93/7 50/115/7
f 51/116/7 52/15/7 43/2/7
f 6/131/7 44/97/7 36/84/7
f 36/84/7 39/83/7 45/117/7
f 46/118/7 47/89/7 65/88/7
f 36/84/7 45/117/7 65/88/7
f 35/16/7 42/128/7 55/119/7
f 56/120/7 57/129/7 66/102/7
f 35/16/7 55/119/7 66/102/7
f 8/14/6 31/74/6 15/12/6
f 31/74/6 13/132/6 14/133/6
f 31/74/6 14/133/6 15/12/6
f 10/11/6 32/72/6 25/17/6
f 32/72/6 23/134/6 24/135/6
f 32/72/6 24/135/6 25/17/6
f 4/136/6 9/137/6 20/138/6
f 9/137/6 37/139/6 8/14/6
f 20/138/6 9/137/6 19/140/6
f 8/14/6 2/13/6 16/141/6
f 8/14/6 16/141/6 17/19/6
f 19/140/6 9/137/6 18/20/6
f 18/20/6 9/137/6 8/14/6
f 7/142/6 1/143/6 11/121/6
f 12/122/6 13/132/6 31/74/6
f 7/142/6 11/121/6 31/74/6
f 9/137/6 4/136/6 21/123/6
f 22/124/6 23/134/6 32/72/6
f 9/137/6 21/123/6 32/72/6
f 1/143/6 7/142/6 30/144/6
f 7/142/6 38/8/6 10/11/6
f 30/144/6 7/142/6 29/145/6
f 10/11/6 3/18/6 26/146/6
f 10/11/6 26/146/6 27/125/6
f 29/145/6 7/142/6 28/126/6
f 28/126/6 7/142/6 10/11/6
f 44/97/7 62/104/7 36/84/7
f 32/5/2 71/7/4 70/147/69
f 32/5/2 70/147/69 69/148/70
f 9/149/71 32/5/2 69/148/70
f 65/108/63 69/113/67 70/150/72
f 65/108/63 70/150/72 71/151/73
f 36/152/74 65/108/63 71/151/73
f 31/75/54 74/77/56 73/153/75
f 31/75/54 73/153/75 72/154/76
f 7/155/77 31/75/54 72/154/76
f 66/112/66 72/127/68 73/156/78
f 66/112/66 73/156/78 74/157/79
f 35/158/80 66/112/66 74/157/79
